<?xml version="1.0" encoding="UTF-8" standalone="no"?>
<!-- Created with Inkscape (http://www.inkscape.org/) -->

<svg
   width="256"
   height="150"
   viewBox="0 0 67.733332 39.6875"
   version="1.1"
   id="svg5"
   inkscape:version="1.2 (dc2aedaf03, 2022-05-15)"
   sodipodi:docname="links.svg"
   xmlns:inkscape="http://www.inkscape.org/namespaces/inkscape"
   xmlns:sodipodi="http://sodipodi.sourceforge.net/DTD/sodipodi-0.dtd"
   xmlns:xlink="http://www.w3.org/1999/xlink"
   xmlns="http://www.w3.org/2000/svg"
   xmlns:svg="http://www.w3.org/2000/svg">
  <sodipodi:namedview
     id="namedview7"
     pagecolor="#ffffff"
     bordercolor="#666666"
     borderopacity="1.0"
     inkscape:showpageshadow="2"
     inkscape:pageopacity="0.0"
     inkscape:pagecheckerboard="0"
     inkscape:deskcolor="#d1d1d1"
     inkscape:document-units="mm"
     showgrid="false"
     inkscape:zoom="2.3786088"
     inkscape:cx="114.56276"
     inkscape:cy="63.062072"
     inkscape:window-width="1920"
     inkscape:window-height="1017"
     inkscape:window-x="-8"
     inkscape:window-y="-8"
     inkscape:window-maximized="1"
     inkscape:current-layer="layer1" />
  <defs
     id="defs2" />
  <g
     inkscape:label="Calque 1"
     inkscape:groupmode="layer"
     id="layer1">
    <rect
       style="font-variation-settings:normal;opacity:1;fill:#ffffff;fill-opacity:1;stroke:none;stroke-width:0.274487;stroke-linecap:round;stroke-linejoin:miter;stroke-miterlimit:4;stroke-dasharray:none;stroke-dashoffset:0;stroke-opacity:1;stop-color:#000000;stop-opacity:1"
       id="rect8328"
       width="67.73333"
       height="39.6875"
       x="0"
       y="0" />
    <g
       id="g8254"
       transform="rotate(45,22.451325,-4.9835013)">
      <path
         id="rect184"
         style="color:#000000;fill:#5c67a0;fill-opacity:1;stroke-width:0.454705;stroke-linecap:round;-inkscape-stroke:none"
         d="m 26.140143,2.3595277 c 0,-0.9077645 -0.744115,-1.65187915 -1.651879,-1.65187915 -0.907765,0 -1.650939,0.74411465 -1.650939,1.65187915 v 2.1298197 c 0,0.7337658 0.485557,1.3605282 1.151146,1.5738669 V 5.1310659 C 23.798787,4.9846654 23.679242,4.7544449 23.679242,4.4893474 V 2.3595277 c 0,-0.4557802 0.35324,-0.8099609 0.809022,-0.8099614 0.455779,0 0.80996,0.3541812 0.80996,0.8099614 v 2.1298197 c 0,0.2649087 -0.119537,0.4950686 -0.309227,0.6414833 v 0.9319132 c 0.66538,-0.2135959 1.151146,-0.8399385 1.151146,-1.5733965 z" />
      <path
         id="rect184-1"
         style="color:#000000;font-variation-settings:normal;fill:#5c67a0;fill-opacity:1;stroke-width:0.454705;stroke-linecap:round;stroke-linejoin:miter;stroke-miterlimit:4;stroke-dasharray:none;stroke-dashoffset:0;stroke-opacity:1;stop-color:#000000"
         d="m 26.140143,26.472173 c 0,0.907764 -0.744115,1.65188 -1.651879,1.65188 -0.907765,0 -1.650939,-0.744116 -1.650939,-1.65188 v -2.12982 c 0,-0.733765 0.485557,-1.360528 1.151146,-1.573866 v 0.932148 c -0.189684,0.146407 -0.309229,0.376621 -0.309229,0.641718 v 2.12982 c 0,0.45578 0.35324,0.809961 0.809022,0.809961 0.455779,0 0.80996,-0.354181 0.80996,-0.809961 v -2.12982 c 0,-0.264908 -0.119537,-0.495068 -0.309227,-0.641483 v -0.931915 c 0.66538,0.213598 1.151146,0.83994 1.151146,1.573398 z" />
      <path
         id="rect184-2"
         style="color:#000000;font-variation-settings:normal;fill:#5c67a0;fill-opacity:1;stroke-width:0.454705;stroke-linecap:round;stroke-linejoin:miter;stroke-miterlimit:4;stroke-dasharray:none;stroke-dashoffset:0;stroke-opacity:1;stop-color:#000000"
         d="m 26.140143,7.8939094 c 0,-0.733394 -0.48585,-1.3597424 -1.151146,-1.5733959 v 0.9316779 c 0.189556,0.1466721 0.309227,0.3769278 0.309227,0.641718 V 10.02373 c 0,0.264908 -0.119537,0.495069 -0.309227,0.641482 v 0.931916 c 0.665379,-0.213598 1.151146,-0.839941 1.151146,-1.573398 z M 23.988471,6.320043 C 23.3229,6.5333918 22.837325,7.1601527 22.837325,7.8939094 V 10.02373 c 0,0.733765 0.485557,1.360528 1.151146,1.573866 V 10.665448 C 23.798787,10.519041 23.679242,10.288827 23.679242,10.02373 V 7.8939094 c 0,-0.265032 0.119637,-0.4955262 0.309229,-0.6421885 z"
         inkscape:tile-cx="48.333483"
         inkscape:tile-cy="22.210013"
         inkscape:tile-w="11.606526"
         inkscape:tile-h="7.2636389"
         inkscape:tile-x0="42.53022"
         inkscape:tile-y0="18.578194" />
      <path
         style="color:#000000;font-variation-settings:normal;fill:#5c67a0;fill-opacity:1;stroke-width:0.454705;stroke-linecap:round;stroke-linejoin:miter;stroke-miterlimit:4;stroke-dasharray:none;stroke-dashoffset:0;stroke-opacity:1;stop-color:#000000"
         d="m 24.91016,4.9092868 a 0.42107568,0.28862932 0 0 0 -0.421846,-0.2885485 0.42107568,0.28862932 0 0 0 -0.42096,0.2885485 v 2.3972663 a 0.42107568,0.28862932 0 0 0 0.42096,0.2885486 0.42107568,0.28862932 0 0 0 0.421846,-0.2885486 z"
         id="path2612-7"
         inkscape:tile-cx="42.063715"
         inkscape:tile-cy="22.209961"
         inkscape:tile-w="6.541297"
         inkscape:tile-h="1.853516"
         inkscape:tile-x0="38.793066"
         inkscape:tile-y0="21.283203" />
      <use
         x="0"
         y="0"
         inkscape:tiled-clone-of="#rect184-2"
         xlink:href="#rect184-2"
         transform="translate(-4.5598569e-7,5.4610726)"
         id="use5446"
         style="font-variation-settings:normal;fill:#5c67a0;fill-opacity:1;stroke:none;stroke-width:0.274487;stroke-linecap:round;stroke-linejoin:miter;stroke-miterlimit:4;stroke-dasharray:none;stroke-dashoffset:0;stroke-opacity:1;stop-color:#000000" />
      <use
         x="0"
         y="0"
         inkscape:tiled-clone-of="#rect184-2"
         xlink:href="#rect184-2"
         transform="translate(-4.5598569e-7,10.958799)"
         id="use5448"
         style="font-variation-settings:normal;fill:#5c67a0;fill-opacity:1;stroke-width:0.274487;stroke-linecap:round;stroke-linejoin:miter;stroke-miterlimit:4;stroke-dasharray:none;stroke-dashoffset:0;stroke-opacity:1;stop-color:#000000" />
      <use
         x="0"
         y="0"
         inkscape:tiled-clone-of="#path2612-7"
         xlink:href="#path2612-7"
         transform="translate(-4.5598569e-7,5.5314543)"
         id="use6184"
         style="font-variation-settings:normal;fill:#5c67a0;fill-opacity:1;stroke-width:0.274487;stroke-linecap:round;stroke-linejoin:miter;stroke-miterlimit:4;stroke-dasharray:none;stroke-dashoffset:0;stroke-opacity:1;stop-color:#000000" />
      <use
         x="0"
         y="0"
         inkscape:tiled-clone-of="#path2612-7"
         xlink:href="#path2612-7"
         transform="translate(-4.5598569e-7,11.062908)"
         id="use6186"
         style="font-variation-settings:normal;fill:#5c67a0;fill-opacity:1;stroke-width:0.274487;stroke-linecap:round;stroke-linejoin:miter;stroke-miterlimit:4;stroke-dasharray:none;stroke-dashoffset:0;stroke-opacity:1;stop-color:#000000" />
      <use
         x="0"
         y="0"
         inkscape:tiled-clone-of="#path2612-7"
         xlink:href="#path2612-7"
         transform="translate(-4.5598569e-7,16.602348)"
         id="use6186-1"
         style="font-variation-settings:normal;fill:#5c67a0;fill-opacity:1;stroke-width:0.274487;stroke-linecap:round;stroke-linejoin:miter;stroke-miterlimit:4;stroke-dasharray:none;stroke-dashoffset:0;stroke-opacity:1;stop-color:#000000" />
    </g>
    <g
       id="g8202"
       transform="matrix(0.59475069,-0.59475069,0.59475069,0.59475069,22.473817,39.056025)">
      <path
         id="rect184-3"
         style="color:#000000;fill:#5c67a0;fill-opacity:1;stroke-width:0.540605;stroke-linecap:round"
         d="m 29.712692,26.037677 c -1.079253,0 -1.96394,0.884688 -1.96394,1.96394 0,1.079254 0.884687,1.962824 1.96394,1.962824 h 2.53217 c 0.872384,0 1.61755,-0.577285 1.871191,-1.368613 H 33.00781 c -0.174058,0.225517 -0.44777,0.367647 -0.762948,0.367647 h -2.53217 c -0.541883,0 -0.962973,-0.419973 -0.962974,-0.961858 0,-0.541881 0.421091,-0.962972 0.962974,-0.962972 h 2.53217 c 0.314954,0 0.588594,0.14212 0.762668,0.367645 h 1.107964 C 33.861547,26.61521 33.11688,26.037677 32.244862,26.037677 Z" />
      <path
         id="rect184-1-6"
         style="color:#000000;font-variation-settings:normal;fill:#5c67a0;fill-opacity:1;stroke-width:0.540605;stroke-linecap:round;stroke-linejoin:miter;stroke-miterlimit:4;stroke-dasharray:none;stroke-dashoffset:0;stroke-opacity:1;stop-color:#000000"
         d="m 45.323854,26.037677 c 1.079252,0 1.963941,0.884688 1.963941,1.96394 0,1.079254 -0.884689,1.962824 -1.963941,1.962824 h -2.532171 c -0.872383,0 -1.617549,-0.577285 -1.87119,-1.368613 h 1.108243 c 0.174065,0.225517 0.44777,0.367647 0.762947,0.367647 h 2.532171 c 0.541883,0 0.962973,-0.419973 0.962973,-0.961858 0,-0.541881 -0.42109,-0.962972 -0.962973,-0.962972 h -2.532171 c -0.314952,0 -0.588592,0.14212 -0.762667,0.367645 H 40.92105 c 0.253949,-0.79108 0.998615,-1.368613 1.870633,-1.368613 z" />
      <path
         id="rect184-2-2"
         style="color:#000000;font-variation-settings:normal;fill:#5c67a0;fill-opacity:1;stroke-width:0.540605;stroke-linecap:round;stroke-linejoin:miter;stroke-miterlimit:4;stroke-dasharray:none;stroke-dashoffset:0;stroke-opacity:1;stop-color:#000000"
         d="m 36.29259,26.037677 c -0.871942,0 -1.616615,0.577634 -1.870631,1.368613 h 1.107684 c 0.174381,-0.225365 0.448135,-0.367645 0.762947,-0.367645 h 2.532171 c 0.314953,0 0.588594,0.14212 0.762667,0.367645 h 1.107966 c -0.253949,-0.791078 -0.998616,-1.368613 -1.870633,-1.368613 z m -1.87119,2.558151 c 0.253653,0.791306 0.998817,1.368613 1.87119,1.368613 h 2.532171 c 0.872383,0 1.617549,-0.577285 1.87119,-1.368613 h -1.108243 c -0.174065,0.225517 -0.44777,0.367647 -0.762947,0.367647 H 36.29259 c -0.3151,0 -0.589138,-0.142238 -0.763506,-0.367647 z"
         inkscape:tile-cx="48.333483"
         inkscape:tile-cy="22.210013"
         inkscape:tile-w="11.606526"
         inkscape:tile-h="7.2636389"
         inkscape:tile-x0="42.53022"
         inkscape:tile-y0="18.578194" />
      <path
         style="color:#000000;font-variation-settings:normal;fill:#5c67a0;fill-opacity:1;stroke-width:0.540605;stroke-linecap:round;stroke-linejoin:miter;stroke-miterlimit:4;stroke-dasharray:none;stroke-dashoffset:0;stroke-opacity:1;stop-color:#000000"
         d="m 32.744134,27.500021 a 0.34315513,0.50062232 0 0 0 -0.34306,0.501537 0.34315513,0.50062232 0 0 0 0.34306,0.500484 h 2.850141 a 0.34315513,0.50062232 0 0 0 0.343059,-0.500484 0.34315513,0.50062232 0 0 0 -0.343059,-0.501537 z"
         id="path2612-7-0"
         inkscape:tile-cx="42.063715"
         inkscape:tile-cy="22.209961"
         inkscape:tile-w="6.541297"
         inkscape:tile-h="1.853516"
         inkscape:tile-x0="38.793066"
         inkscape:tile-y0="21.283203" />
      <use
         x="0"
         y="0"
         inkscape:tiled-clone-of="#path2612-7-0"
         xlink:href="#path2612-7-0"
         transform="translate(6.5764174)"
         id="use6184-5"
         style="font-variation-settings:normal;fill:#5c67a0;fill-opacity:1;stroke-width:0.274487;stroke-linecap:round;stroke-linejoin:miter;stroke-miterlimit:4;stroke-dasharray:none;stroke-dashoffset:0;stroke-opacity:1;stop-color:#000000" />
    </g>
  </g>
</svg>
